PathFileType	4	(X/Y/Z)	D:\Share\Shared_Data\Ergonomics\Sit To Stand Pertubation\S3\Perturbed.trc
DataRate	CameraRate	NumFrames	NumMarkers	Units	OrigDataRate	OrigDataStartFrame	OrigNumFrames	
100	100	9	18	m	100	6276	251
Frame#	Time	R_ASIS			R_Pelvis			V_Sacral			L_Pelvis			L_ASIS			Clavical			R_Acromium			L_Acromium			Sternum			Torso			R_Thigh_Med			R_Thigh_Lat			R_Thigh			R_Shank_Med			R_Shank_Lat			R_Shank			R_Heel			R_Toe			
		X1	Y1	Z1	X2	Y2	Z2	X3	Y3	Z3	X4	Y4	Z4	X5	Y5	Z5	X6	Y6	Z6	X7	Y7	Z7	X8	Y8	Z8	X9	Y9	Z9	X10	Y10	Z10	X11	Y11	Z11	X12	Y12	Z12	X13	Y13	Z13	X14	Y14	Z14	X15	Y15	Z15	X16	Y16	Z16	X17	Y17	Z17	X18	Y18	Z18	

6276	62.75	0.01937476	0.63981506	0.15265176	-0.093402229	0.63100043	0.20391179	-0.20185757	0.6332171	0.016501776	-0.088044609	0.65051434	-0.18485579	0.019521055	0.64327942	-0.1305457	0.050196323	1.0224269	0.002217217	0.0074467559	1.0920615	0.17287306	0.021406794	1.0826017	-0.15965477	0.060022816	0.94400439	0.010033519	0.053702686	1.0065637	-0.059380779	0.35718994	0.47047391	0.065158005	0.34497665	0.45281625	0.18373276	0.17506487	0.57977765	0.10802331	0.30359988	0.10731554	0.095636604	0.29016333	0.097550812	0.17631493	0.30071573	0.27468784	0.19685237	0.23148099	0.058151848	0.13862357	0.44760138	0.056724495	0.11571487
6277	62.76	0.02019166	0.63937848	0.15275656	-0.092807991	0.63138849	0.20400551	-0.2013244	0.63417175	0.016448208	-0.087320709	0.65084058	-0.18488486	0.02017828	0.64293787	-0.13062904	0.055813679	1.0210217	0.0027372577	0.014283219	1.0907797	0.17299133	0.027908888	1.0808967	-0.15873309	0.064542107	0.94210199	0.010059328	0.059300816	1.0048672	-0.059141514	0.35706567	0.47047003	0.064977478	0.34481482	0.45282391	0.18358029	0.174963	0.57973352	0.10784451	0.30357574	0.10730231	0.09562085	0.29015164	0.097573822	0.17627715	0.3005705	0.27471194	0.19672351	0.23148338	0.058142796	0.13861835	0.44759329	0.05673019	0.11571844
6278	62.77	0.021050312	0.63890057	0.15278311	-0.092151634	0.63178668	0.20408746	-0.20073376	0.63519092	0.016412224	-0.086524147	0.65118451	-0.18490138	0.020925413	0.64254224	-0.13070653	0.061692074	1.019527	0.0033092532	0.021420546	1.0893726	0.17310835	0.034717163	1.0791892	-0.1577169	0.069242294	0.94006329	0.010094561	0.065208092	1.003059	-0.058856331	0.35694937	0.47043683	0.064793747	0.34466107	0.45282928	0.18340219	0.17487578	0.57968292	0.10764218	0.30354971	0.10728661	0.095603653	0.29014838	0.097589233	0.17624989	0.3004317	0.27473761	0.19658386	0.23148297	0.058131596	0.1386156	0.44758423	0.056736832	0.11571902
6279	62.78	0.021939184	0.63837225	0.15272433	-0.09143354	0.63219342	0.20415707	-0.20008212	0.63628143	0.016400324	-0.085655579	0.65154663	-0.1849035	0.021764402	0.64209589	-0.13077777	0.067854256	1.0178964	0.0038765113	0.028868076	1.0878265	0.17322318	0.041861389	1.0775831	-0.1566982	0.074141205	0.93787549	0.010142393	0.071429253	1.0011244	-0.058537441	0.35683838	0.47037344	0.064604141	0.34451654	0.45283008	0.18319881	0.17480438	0.57962524	0.10741646	0.30351956	0.10726747	0.095585648	0.29015302	0.097597801	0.1762334	0.30030106	0.27476178	0.19643863	0.23147742	0.058116074	0.13861552	0.44757333	0.056744949	0.1157162
6280	62.79	0.022842403	0.63777911	0.15257509	-0.09065461	0.63260809	0.20421492	-0.1993625	0.63744739	0.016409897	-0.084715828	0.65192816	-0.18489244	0.022693676	0.64160095	-0.13084352	0.074320419	1.0160912	0.0043954372	0.036636478	1.0861281	0.17333696	0.049366135	1.0761185	-0.15572066	0.079271156	0.93552789	0.010210482	0.077960289	0.99904492	-0.058205963	0.35673157	0.47027396	0.064412506	0.34438074	0.45282507	0.18297136	0.17474869	0.57955988	0.10716831	0.30348367	0.10724397	0.095567413	0.29016208	0.097601105	0.17622606	0.30018039	0.27478159	0.1962935	0.2314648	0.05809462	0.13861809	0.44755988	0.0567547	0.11571014
6281	62.8	0.023742474	0.63710339	0.15233611	-0.089816284	0.63303162	0.20426198	-0.19856384	0.63869128	0.016430065	-0.083704865	0.65233057	-0.18487425	0.023709894	0.64105878	-0.13090552	0.081105034	1.0140898	0.0048476901	0.044737999	1.0842644	0.17345181	0.057244274	1.0747463	-0.15477899	0.084665916	0.93301221	0.010310858	0.084789352	0.99680078	-0.057885521	0.35662891	0.47012854	0.064228912	0.34425165	0.45281418	0.18272218	0.17470721	0.5794856	0.10689917	0.30344113	0.10721581	0.095549522	0.29016983	0.097600838	0.17622528	0.30007037	0.27479535	0.19615303	0.23144455	0.058066875	0.13862347	0.44754352	0.056765823	0.11570153
6282	62.81	0.024623697	0.63632733	0.15201308	-0.08891951	0.63346619	0.20429889	-0.19767262	0.64001746	0.01644836	-0.082620979	0.652755	-0.18486118	0.02481019	0.64046893	-0.13096709	0.088216881	1.0118842	0.0052331648	0.053186306	1.0822245	0.17356908	0.065498207	1.0733544	-0.15387517	0.090351105	0.93032428	0.010458942	0.09189846	0.99437439	-0.057595039	0.35653049	0.46992648	0.064067368	0.34412732	0.45279797	0.18245522	0.17467726	0.57940125	0.10661033	0.30339185	0.10718349	0.095532722	0.29017194	0.097597916	0.17622858	0.29997009	0.27480267	0.19601947	0.23141708	0.058033569	0.13863199	0.44752402	0.05677766	0.11569153
6283	62.82	0.025477499	0.63544031	0.15161742	-0.087964073	0.63391492	0.20432579	-0.19667479	0.64143408	0.016455618	-0.081459435	0.65320215	-0.18487367	0.02599435	0.63982916	-0.13103391	0.095658966	1.0094718	0.0055606112	0.061994907	1.0799967	0.1736884	0.074124527	1.0718141	-0.15304291	0.096343216	0.92746912	0.010671893	0.099265594	0.99175171	-0.057345013	0.356435	0.46966031	0.063940971	0.34400668	0.45277719	0.18217577	0.17465543	0.57930518	0.10630241	0.30333597	0.10714789	0.095517944	0.29016806	0.097590599	0.17623575	0.29987686	0.27480438	0.19589308	0.23138307	0.057995693	0.1386434	0.44750107	0.056789665	0.1156815
6284	62.83	0.026311136	0.63444415	0.15117749	-0.086947975	0.63438116	0.20434288	-0.19555478	0.64295325	0.016446407	-0.080211151	0.65367303	-0.18494212	0.027267281	0.63913513	-0.13111484	0.10342824	1.0068506	0.0058427987	0.071174751	1.0775684	0.17380754	0.08311731	1.0700195	-0.15231602	0.10265061	0.92446667	0.010964719	0.10686565	0.98892371	-0.057137447	0.35633881	0.46933148	0.063854782	0.34388901	0.45275223	0.18188997	0.17463815	0.57919495	0.10597533	0.30327383	0.10710987	0.09550618	0.29016058	0.097571922	0.17624986	0.29978696	0.27480191	0.19577333	0.23134294	0.057953655	0.13865717	0.4474743	0.056801777	0.11567288
